<svg xmlns="http://www.w3.org/2000/svg" viewBox="0 0 1536 1536"><g transform="translate(0,0)">
  <rect x="18" y="18" width="476" height="476" rx="86" fill="#F7F0E6"/>
  <rect x="48" y="48" width="416" height="416" rx="68" fill="#EEE4D4" stroke="#28323A" stroke-opacity=".20" stroke-width="4"/>
  <circle cx="256" cy="256" r="156" fill="none" stroke="#28323A" stroke-opacity=".20" stroke-width="4"/>
  <circle cx="256" cy="256" r="126" fill="#DDE8E4" stroke="#28323A" stroke-opacity=".48" stroke-width="6"/>
  <path d="M256 144C302 144 342 184 342 230C342 294 294 350 256 378C218 350 170 294 170 230C170 184 210 144 256 144Z" fill="#DDE8E4" stroke="#DDE8E4" stroke-width="8"/>
  <path d="M218 178C240 160 275 163 296 182" fill="none" stroke="#FFFFFF" stroke-opacity=".84" stroke-width="10" stroke-linecap="round"/>
  <circle cx="256" cy="84" r="10" fill="#28323A"/><circle cx="390" cy="176" r="10" fill="#28323A"/><circle cx="348" cy="378" r="10" fill="#28323A"/><circle cx="164" cy="378" r="10" fill="#28323A"/><circle cx="122" cy="176" r="10" fill="#28323A"/>
  <path d="M86 420H426" stroke="#FFFFFF" stroke-opacity=".28" stroke-width="3" stroke-linecap="round"/>
</g><g transform="translate(512,0)">
  <rect x="18" y="18" width="476" height="476" rx="86" fill="#F7F0E6"/>
  <rect x="48" y="48" width="416" height="416" rx="68" fill="#EEE4D4" stroke="#28323A" stroke-opacity=".20" stroke-width="4"/>
  <circle cx="256" cy="256" r="156" fill="none" stroke="#28323A" stroke-opacity=".20" stroke-width="4"/>
  <circle cx="256" cy="256" r="126" fill="#DDE8E4" stroke="#28323A" stroke-opacity=".48" stroke-width="6"/>
  <path d="M256 144C302 144 342 184 342 230C342 294 294 350 256 378C218 350 170 294 170 230C170 184 210 144 256 144Z" fill="#DDE8E4" stroke="#C89D5B" stroke-width="8"/>
  <path d="M218 178C240 160 275 163 296 182" fill="none" stroke="#FFFFFF" stroke-opacity=".84" stroke-width="10" stroke-linecap="round"/>
  <path d="M256 110L292 238L256 272L220 238Z" fill="#C89D5B"/><path d="M256 272V386M184 316H328" stroke="#28323A" stroke-width="12" stroke-linecap="round"/>
  <path d="M86 420H426" stroke="#FFFFFF" stroke-opacity=".28" stroke-width="3" stroke-linecap="round"/>
</g><g transform="translate(1024,0)">
  <rect x="18" y="18" width="476" height="476" rx="86" fill="#F7F0E6"/>
  <rect x="48" y="48" width="416" height="416" rx="68" fill="#EEE4D4" stroke="#28323A" stroke-opacity=".20" stroke-width="4"/>
  <circle cx="256" cy="256" r="156" fill="none" stroke="#28323A" stroke-opacity=".20" stroke-width="4"/>
  <circle cx="256" cy="256" r="126" fill="#DDE8E4" stroke="#28323A" stroke-opacity=".48" stroke-width="6"/>
  <path d="M256 144C302 144 342 184 342 230C342 294 294 350 256 378C218 350 170 294 170 230C170 184 210 144 256 144Z" fill="#DDE8E4" stroke="#D99C89" stroke-width="8"/>
  <path d="M218 178C240 160 275 163 296 182" fill="none" stroke="#FFFFFF" stroke-opacity=".84" stroke-width="10" stroke-linecap="round"/>
  <path d="M142 300L234 152L334 300Z" fill="#DDE8E4" stroke="#28323A" stroke-width="10"/><path d="M208 348L300 200L400 348Z" fill="#D99C89" fill-opacity=".76" stroke="#28323A" stroke-width="10"/>
  <path d="M86 420H426" stroke="#FFFFFF" stroke-opacity=".28" stroke-width="3" stroke-linecap="round"/>
</g><g transform="translate(0,512)">
  <rect x="18" y="18" width="476" height="476" rx="86" fill="#F7F0E6"/>
  <rect x="48" y="48" width="416" height="416" rx="68" fill="#EEE4D4" stroke="#28323A" stroke-opacity=".20" stroke-width="4"/>
  <circle cx="256" cy="256" r="156" fill="none" stroke="#28323A" stroke-opacity=".20" stroke-width="4"/>
  <circle cx="256" cy="256" r="126" fill="#DDE8E4" stroke="#28323A" stroke-opacity=".48" stroke-width="6"/>
  <path d="M256 144C302 144 342 184 342 230C342 294 294 350 256 378C218 350 170 294 170 230C170 184 210 144 256 144Z" fill="#DDE8E4" stroke="#74B9C9" stroke-width="8"/>
  <path d="M218 178C240 160 275 163 296 182" fill="none" stroke="#FFFFFF" stroke-opacity=".84" stroke-width="10" stroke-linecap="round"/>
  <circle cx="236" cy="232" r="76" fill="none" stroke="#74B9C9" stroke-width="18"/><path d="M292 288L374 370" stroke="#28323A" stroke-width="18" stroke-linecap="round"/>
  <path d="M86 420H426" stroke="#FFFFFF" stroke-opacity=".28" stroke-width="3" stroke-linecap="round"/>
</g><g transform="translate(512,512)">
  <rect x="18" y="18" width="476" height="476" rx="86" fill="#F7F0E6"/>
  <rect x="48" y="48" width="416" height="416" rx="68" fill="#EEE4D4" stroke="#28323A" stroke-opacity=".20" stroke-width="4"/>
  <circle cx="256" cy="256" r="156" fill="none" stroke="#28323A" stroke-opacity=".20" stroke-width="4"/>
  <circle cx="256" cy="256" r="126" fill="#DDE8E4" stroke="#28323A" stroke-opacity=".48" stroke-width="6"/>
  <path d="M256 144C302 144 342 184 342 230C342 294 294 350 256 378C218 350 170 294 170 230C170 184 210 144 256 144Z" fill="#DDE8E4" stroke="#D9B36C" stroke-width="8"/>
  <path d="M218 178C240 160 275 163 296 182" fill="none" stroke="#FFFFFF" stroke-opacity=".84" stroke-width="10" stroke-linecap="round"/>
  <path d="M164 334C164 224 238 158 350 146C338 258 284 342 164 334Z" fill="#D9B36C" stroke="#28323A" stroke-width="10"/><path d="M174 326L326 174" stroke="#28323A" stroke-width="10" stroke-linecap="round"/>
  <path d="M86 420H426" stroke="#FFFFFF" stroke-opacity=".28" stroke-width="3" stroke-linecap="round"/>
</g><g transform="translate(1024,512)">
  <rect x="18" y="18" width="476" height="476" rx="86" fill="#F7F0E6"/>
  <rect x="48" y="48" width="416" height="416" rx="68" fill="#EEE4D4" stroke="#28323A" stroke-opacity=".20" stroke-width="4"/>
  <circle cx="256" cy="256" r="156" fill="none" stroke="#28323A" stroke-opacity=".20" stroke-width="4"/>
  <circle cx="256" cy="256" r="126" fill="#DDE8E4" stroke="#28323A" stroke-opacity=".48" stroke-width="6"/>
  <path d="M256 144C302 144 342 184 342 230C342 294 294 350 256 378C218 350 170 294 170 230C170 184 210 144 256 144Z" fill="#DDE8E4" stroke="#86A88F" stroke-width="8"/>
  <path d="M218 178C240 160 275 163 296 182" fill="none" stroke="#FFFFFF" stroke-opacity=".84" stroke-width="10" stroke-linecap="round"/>
  <path d="M256 122L292 214L382 170L334 260L424 296L328 310L348 408L256 348L164 408L184 310L88 296L178 260L130 170L220 214Z" fill="#86A88F" fill-opacity=".72" stroke="#28323A" stroke-width="9" stroke-linejoin="round"/>
  <path d="M86 420H426" stroke="#FFFFFF" stroke-opacity=".28" stroke-width="3" stroke-linecap="round"/>
</g><g transform="translate(0,1024)">
  <rect x="18" y="18" width="476" height="476" rx="86" fill="#F7F0E6"/>
  <rect x="48" y="48" width="416" height="416" rx="68" fill="#EEE4D4" stroke="#28323A" stroke-opacity=".20" stroke-width="4"/>
  <circle cx="256" cy="256" r="156" fill="none" stroke="#28323A" stroke-opacity=".20" stroke-width="4"/>
  <circle cx="256" cy="256" r="126" fill="#DDE8E4" stroke="#28323A" stroke-opacity=".48" stroke-width="6"/>
  <path d="M256 144C302 144 342 184 342 230C342 294 294 350 256 378C218 350 170 294 170 230C170 184 210 144 256 144Z" fill="#DDE8E4" stroke="#7EAED2" stroke-width="8"/>
  <path d="M218 178C240 160 275 163 296 182" fill="none" stroke="#FFFFFF" stroke-opacity=".84" stroke-width="10" stroke-linecap="round"/>
  <rect x="134" y="182" width="138" height="138" rx="18" fill="#DDE8E4" stroke="#28323A" stroke-width="10"/><rect x="240" y="276" width="138" height="138" rx="18" fill="#7EAED2" fill-opacity=".85" stroke="#28323A" stroke-width="10"/>
  <path d="M86 420H426" stroke="#FFFFFF" stroke-opacity=".28" stroke-width="3" stroke-linecap="round"/>
</g><g transform="translate(512,1024)">
  <rect x="18" y="18" width="476" height="476" rx="86" fill="#F7F0E6"/>
  <rect x="48" y="48" width="416" height="416" rx="68" fill="#EEE4D4" stroke="#28323A" stroke-opacity=".20" stroke-width="4"/>
  <circle cx="256" cy="256" r="156" fill="none" stroke="#28323A" stroke-opacity=".20" stroke-width="4"/>
  <circle cx="256" cy="256" r="126" fill="#DDE8E4" stroke="#28323A" stroke-opacity=".48" stroke-width="6"/>
  <path d="M256 144C302 144 342 184 342 230C342 294 294 350 256 378C218 350 170 294 170 230C170 184 210 144 256 144Z" fill="#DDE8E4" stroke="#5E9F9C" stroke-width="8"/>
  <path d="M218 178C240 160 275 163 296 182" fill="none" stroke="#FFFFFF" stroke-opacity=".84" stroke-width="10" stroke-linecap="round"/>
  <path d="M142 266C142 178 192 126 256 126C320 126 370 178 370 266" fill="none" stroke="#5E9F9C" stroke-width="22" stroke-linecap="round"/><path d="M176 284L256 386L336 284" fill="none" stroke="#28323A" stroke-width="12" stroke-linecap="round" stroke-linejoin="round"/>
  <path d="M86 420H426" stroke="#FFFFFF" stroke-opacity=".28" stroke-width="3" stroke-linecap="round"/>
</g><g transform="translate(1024,1024)">
  <rect x="18" y="18" width="476" height="476" rx="86" fill="#F7F0E6"/>
  <rect x="48" y="48" width="416" height="416" rx="68" fill="#EEE4D4" stroke="#28323A" stroke-opacity=".20" stroke-width="4"/>
  <circle cx="256" cy="256" r="156" fill="none" stroke="#28323A" stroke-opacity=".20" stroke-width="4"/>
  <circle cx="256" cy="256" r="126" fill="#DDE8E4" stroke="#28323A" stroke-opacity=".48" stroke-width="6"/>
  <path d="M256 144C302 144 342 184 342 230C342 294 294 350 256 378C218 350 170 294 170 230C170 184 210 144 256 144Z" fill="#DDE8E4" stroke="#C89D5B" stroke-width="8"/>
  <path d="M218 178C240 160 275 163 296 182" fill="none" stroke="#FFFFFF" stroke-opacity=".84" stroke-width="10" stroke-linecap="round"/>
  <path d="M132 344C188 290 210 338 250 274C290 210 320 250 380 158" fill="none" stroke="#C89D5B" stroke-width="16" stroke-linecap="round"/><circle cx="132" cy="344" r="14" fill="#28323A"/><circle cx="250" cy="274" r="14" fill="#28323A"/><circle cx="380" cy="158" r="14" fill="#28323A"/>
  <path d="M86 420H426" stroke="#FFFFFF" stroke-opacity=".28" stroke-width="3" stroke-linecap="round"/>
</g></svg>
