<svg xmlns="http://www.w3.org/2000/svg" viewBox="0 0 512 512" role="img" aria-label="execution-guard Opal Seed icon">
  <rect x="18" y="18" width="476" height="476" rx="86" fill="#F7F0E6"/>
  <rect x="48" y="48" width="416" height="416" rx="68" fill="#EEE4D4" stroke="#28323A" stroke-opacity=".20" stroke-width="4"/>
  <circle cx="256" cy="256" r="156" fill="none" stroke="#28323A" stroke-opacity=".20" stroke-width="4"/>
  <circle cx="256" cy="256" r="126" fill="#DDE8E4" stroke="#28323A" stroke-opacity=".48" stroke-width="6"/>
  <path d="M256 144C302 144 342 184 342 230C342 294 294 350 256 378C218 350 170 294 170 230C170 184 210 144 256 144Z" fill="#DDE8E4" stroke="#5E9F9C" stroke-width="8"/>
  <path d="M218 178C240 160 275 163 296 182" fill="none" stroke="#FFFFFF" stroke-opacity=".84" stroke-width="10" stroke-linecap="round"/>
  <path d="M142 266C142 178 192 126 256 126C320 126 370 178 370 266" fill="none" stroke="#5E9F9C" stroke-width="22" stroke-linecap="round"/><path d="M176 284L256 386L336 284" fill="none" stroke="#28323A" stroke-width="12" stroke-linecap="round" stroke-linejoin="round"/>
  <path d="M86 420H426" stroke="#FFFFFF" stroke-opacity=".28" stroke-width="3" stroke-linecap="round"/>
</svg>
